HIERARCHY
ROOT hip
{
  OFFSET 0.477233 82.3933 162.802
  CHANNELS 6 Xposition Yposition Zposition Zrotation Xrotation Yrotation
  JOINT abdomen
  {
    OFFSET 0 20.6881 -0.73152
    CHANNELS 3 Zrotation Xrotation Yrotation
    JOINT chest
    {
      OFFSET 0 11.7043 -0.48768
      CHANNELS 3 Zrotation Xrotation Yrotation
      JOINT neck
      {
        OFFSET 0 22.1894 -2.19456
        CHANNELS 3 Zrotation Xrotation Yrotation
        JOINT head
        {
          OFFSET -0.24384 7.07133 1.2192
          CHANNELS 3 Zrotation Xrotation Yrotation
          JOINT leftEye
          {
            OFFSET 4.14528 8.04674 8.04672
            CHANNELS 3 Zrotation Xrotation Yrotation
            End Site
            {
              OFFSET 1 0 0
            }
          }
          JOINT rightEye
          {
            OFFSET -3.6576 8.04674 8.04672
            CHANNELS 3 Zrotation Xrotation Yrotation
            End Site
            {
              OFFSET 1 0 0
            }
          }
        }
      }
      JOINT rCollar
      {
        OFFSET -2.68224 19.2634 -4.8768
        CHANNELS 3 Zrotation Xrotation Yrotation
        JOINT rShldr
        {
          OFFSET -8.77824 -1.95073 1.46304
          CHANNELS 3 Zrotation Xrotation Yrotation
          JOINT rForeArm
          {
            OFFSET -28.1742 -1.7115 0.48768
            CHANNELS 3 Zrotation Xrotation Yrotation
            JOINT rHand
            {
              OFFSET -22.5879 0.773209 7.07136
              CHANNELS 3 Zrotation Xrotation Yrotation
              JOINT rThumb1
              {
                OFFSET -1.2192 -0.487915 3.41376
                CHANNELS 3 Zrotation Xrotation Yrotation
                JOINT rThumb2
                {
                  OFFSET -3.37035 -0.52449 3.41376
                  CHANNELS 3 Zrotation Xrotation Yrotation
                  End Site
                  {
                    OFFSET -1.78271 -1.18214 1.43049
                  }
                }
              }
              JOINT rIndex1
              {
                OFFSET -7.75947 0.938293 5.60832
                CHANNELS 3 Zrotation Xrotation Yrotation
                JOINT rIndex2
                {
                  OFFSET -2.54057 -0.884171 1.56538
                  CHANNELS 3 Zrotation Xrotation Yrotation
                  End Site
                  {
                    OFFSET -1.62519 -0.234802 1.16502
                  }
                }
              }
              JOINT rMid1
              {
                OFFSET -8.24714 1.18213 3.41376
                CHANNELS 3 Zrotation Xrotation Yrotation
                JOINT rMid2
                {
                  OFFSET -3.10165 -0.590103 1.0647
                  CHANNELS 3 Zrotation Xrotation Yrotation
                  End Site
                  {
                    OFFSET -2.48547 -0.328903 0.83742
                  }
                }
              }
              JOINT rRing1
              {
                OFFSET -8.82822 0.546677 1.51678
                CHANNELS 3 Zrotation Xrotation Yrotation
                JOINT rRing2
                {
                  OFFSET -2.60934 -0.819778 -0.0198488
                  CHANNELS 3 Zrotation Xrotation Yrotation
                  End Site
                  {
                    OFFSET -2.33842 -0.294052 0.168128
                  }
                }
              }
              JOINT rPinky1
              {
                OFFSET -8.27202 -0.0477905 -0.4584
                CHANNELS 3 Zrotation Xrotation Yrotation
                JOINT rPinky2
                {
                  OFFSET -1.82734 -0.647385 -0.700984
                  CHANNELS 3 Zrotation Xrotation Yrotation
                  End Site
                  {
                    OFFSET -1.69225 -0.51767 -0.607171
                  }
                }
              }
            }
          }
        }
      }
      JOINT lCollar
      {
        OFFSET 2.68224 19.2634 -4.8768
        CHANNELS 3 Zrotation Xrotation Yrotation
        JOINT lShldr
        {
          OFFSET 8.77824 -1.95073 1.46304
          CHANNELS 3 Zrotation Xrotation Yrotation
          JOINT lForeArm
          {
            OFFSET 28.1742 -1.7115 0.48768
            CHANNELS 3 Zrotation Xrotation Yrotation
            JOINT lHand
            {
              OFFSET 22.5879 0.773209 7.07136
              CHANNELS 3 Zrotation Xrotation Yrotation
              JOINT lThumb1
              {
                OFFSET 1.2192 -0.487915 3.41376
                CHANNELS 3 Zrotation Xrotation Yrotation
                JOINT lThumb2
                {
                  OFFSET 3.37035 -0.52449 3.41376
                  CHANNELS 3 Zrotation Xrotation Yrotation
                  End Site
                  {
                    OFFSET 1.78271 -1.18214 1.43049
                  }
                }
              }
              JOINT lIndex1
              {
                OFFSET 7.75947 0.938293 5.60832
                CHANNELS 3 Zrotation Xrotation Yrotation
                JOINT lIndex2
                {
                  OFFSET 2.54057 -0.884171 1.56538
                  CHANNELS 3 Zrotation Xrotation Yrotation
                  End Site
                  {
                    OFFSET 1.62519 -0.234802 1.16502
                  }
                }
              }
              JOINT lMid1
              {
                OFFSET 8.24714 1.18213 3.41376
                CHANNELS 3 Zrotation Xrotation Yrotation
                JOINT lMid2
                {
                  OFFSET 3.10165 -0.590103 1.0647
                  CHANNELS 3 Zrotation Xrotation Yrotation
                  End Site
                  {
                    OFFSET 2.48547 -0.328903 0.83742
                  }
                }
              }
              JOINT lRing1
              {
                OFFSET 8.82822 0.546677 1.51678
                CHANNELS 3 Zrotation Xrotation Yrotation
                JOINT lRing2
                {
                  OFFSET 2.60934 -0.819778 -0.0198488
                  CHANNELS 3 Zrotation Xrotation Yrotation
                  End Site
                  {
                    OFFSET 2.33842 -0.294052 0.168128
                  }
                }
              }
              JOINT lPinky1
              {
                OFFSET 8.27202 -0.0477905 -0.4584
                CHANNELS 3 Zrotation Xrotation Yrotation
                JOINT lPinky2
                {
                  OFFSET 1.82734 -0.647385 -0.700984
                  CHANNELS 3 Zrotation Xrotation Yrotation
                  End Site
                  {
                    OFFSET 1.69225 -0.51767 -0.607171
                  }
                }
              }
            }
          }
        }
      }
    }
  }
  JOINT rButtock
  {
    OFFSET -8.77824 4.35084 1.2192
    CHANNELS 3 Zrotation Xrotation Yrotation
    JOINT rThigh
    {
      OFFSET 0 -1.70687 -2.19456
      CHANNELS 3 Zrotation Xrotation Yrotation
      JOINT rShin
      {
        OFFSET 0 -36.8199 0.73152
        CHANNELS 3 Zrotation Xrotation Yrotation
        JOINT rFoot
        {
          OFFSET 0.73152 -45.1104 -5.12064
          CHANNELS 3 Zrotation Xrotation Yrotation
          End Site
          {
            OFFSET -1.1221 -3.69964 12.103
          }
        }
      }
    }
  }
  JOINT lButtock
  {
    OFFSET 8.77824 4.35084 1.2192
    CHANNELS 3 Zrotation Xrotation Yrotation
    JOINT lThigh
    {
      OFFSET 0 -1.70687 -2.19456
      CHANNELS 3 Zrotation Xrotation Yrotation
      JOINT lShin
      {
        OFFSET 0 -36.8199 0.73152
        CHANNELS 3 Zrotation Xrotation Yrotation
        JOINT lFoot
        {
          OFFSET -0.73152 -45.1104 -5.12064
          CHANNELS 3 Zrotation Xrotation Yrotation
          End Site
          {
            OFFSET 1.1221 -3.69964 12.103
          }
        }
      }
    }
  }
}
MOTION
Frames:	4
Frame Time:	0.00833333
5.49072 85.0114 -169.809 -0.0194629 1.35391e-005 0.000335382 0.0256063 -6.19184e-006 0.000728838 0.00706477 8.63128e-006 0.00122382 -2.36889e-016 0 6.21202e-018 -7.14382e-016 3.18055e-015 1.86361e-017 -0 0 0 -0 0 0 -1.33158e-018 -7.76503e-019 1.98785e-016 -1.22425e-015 1.36664e-016 5.96354e-016 -4.48756e-014 1.15295e-014 3.18055e-014 -4.80357e-013 -1.84124e-014 -3.18055e-014 -1.14328e-012 -1.65305e-014 3.18055e-014 -1.98069e-012 -2.8625e-014 4.77083e-014 -1.13824e-012 -1.47101e-014 2.22639e-014 7.73091 5.47488 0.417314 -1.1444e-012 -1.67973e-014 3.49861e-014 2.90554 0.965183 0.102902 -1.13553e-012 -1.63003e-014 3.02153e-014 10.2786 0.731801 0.0259123 -1.14639e-012 -1.59028e-014 3.81667e-014 2.22167 -0.733487 -0.20892 -1.97461e-016 -7.76503e-019 -1.98785e-016 -3.54978e-015 3.10601e-017 -5.96354e-016 -4.01545e-014 -1.35174e-014 -3.18055e-015 -4.87495e-013 9.49197e-015 2.8625e-014 -1.14254e-012 -1.15615e-014 2.8625e-014 -1.96121e-012 -1.59028e-014 5.32743e-014 -1.145e-012 -1.07344e-014 3.81667e-014 -7.73091 5.47488 -0.417314 -1.14242e-012 -1.16289e-014 2.8625e-014 -2.90554 0.965183 -0.102902 -1.1458e-012 -1.16289e-014 3.10104e-014 -10.2786 0.731801 -0.0259123 -1.13287e-012 -8.74653e-015 2.22639e-014 -2.22167 -0.733487 0.20892 -2.03217e-016 0 -3.88251e-019 0.512303 -3.13364 -0.0420886 -0.00562804 0.123099 -0.0495526 -0.492803 3.00963 0.11736 2.03217e-016 0 3.88251e-019 -0.473322 -3.03453 0.0397103 0.00592196 -0.0564348 0.0521748 0.492502 3.09005 -0.118955 
5.68386 83.3253 -170.818 0.35046 1.11526 -0.462801 -0.148953 -0.502031 -2.28558 2.29667 -0.892437 -0.589661 -3.88976 2.68852 -0.134432 2.50548 -0.91703 0.194258 -0 0 0 -0 0 0 1.803e-015 3.39589e-015 6.90777e-015 20.5673 7.47689 -0.459487 -4.00433 -1.77859 6.29794 0.0100072 2.21949 0.311083 8.48808e-011 -3.41343e-011 5.86129e-011 1.47221e-010 -5.91461e-011 1.0096e-010 8.4885e-011 -3.41331e-011 5.86034e-011 7.73091 5.47488 0.417314 8.48795e-011 -3.41342e-011 5.86132e-011 2.90554 0.965183 0.102902 8.48881e-011 -3.41335e-011 5.86118e-011 10.2786 0.731801 0.0259123 8.48795e-011 -3.41325e-011 5.86193e-011 2.22167 -0.733487 -0.20892 1.62221e-015 3.40487e-015 6.53621e-015 -24.607 4.76116 0.358426 3.49399 -1.46633 -5.58181 -0.0277276 3.69507 -0.515413 6.5465e-011 1.22545e-010 1.18345e-010 1.14838e-010 2.126e-010 2.0383e-010 6.54617e-011 1.22543e-010 1.18354e-010 -7.73091 5.47488 -0.417314 6.54635e-011 1.22542e-010 1.18343e-010 -2.90554 0.965183 -0.102902 6.54615e-011 1.22542e-010 1.18347e-010 -10.2786 0.731801 -0.0259123 6.54742e-011 1.22544e-010 1.18339e-010 -2.22167 -0.733487 0.20892 -2.03217e-016 0 -3.88251e-019 1.13893 -7.01953 1.13015 0.0137772 8.70719 0.0996512 -0.779698 -1.60733 -2.68097 2.03217e-016 0 3.88251e-019 -1.04987 -7.03972 -1.02904 -0.00790565 8.40969 -0.0861898 0.620713 -1.52569 1.29088 
5.65567 83.3223 -170.823 0.755509 2.29707 -0.958264 -0.369206 -1.04044 -4.70792 4.69743 -1.83111 -1.21646 -7.98895 5.53938 -0.272196 5.15911 -1.89803 0.409035 -0 0 0 -0 0 0 4.58347e-015 7.07149e-015 1.35919e-014 42.4411 15.39 -0.968188 -7.81505 -3.58714 12.9751 -0.00568807 4.56205 0.641002 1.67592e-010 -6.83868e-011 1.12651e-010 2.90684e-010 -1.18485e-010 1.94069e-010 1.67596e-010 -6.83861e-011 1.12642e-010 7.73091 5.47488 0.417314 1.67591e-010 -6.83863e-011 1.12648e-010 2.90554 0.965183 0.102902 1.67599e-010 -6.83854e-011 1.12651e-010 10.2786 0.731801 0.0259123 1.67593e-010 -6.83837e-011 1.12658e-010 2.22167 -0.733487 -0.20892 4.41793e-015 7.09067e-015 1.32471e-014 -50.6896 9.77957 0.748394 6.87828 -2.96988 -11.4938 0.0158305 7.6013 -1.0676 1.33728e-010 2.4018e-010 2.2322e-010 2.34358e-010 4.16591e-010 3.8433e-010 1.33723e-010 2.40176e-010 2.23228e-010 -7.73091 5.47488 -0.417314 1.33724e-010 2.40175e-010 2.23215e-010 -2.90554 0.965183 -0.102902 1.33724e-010 2.40173e-010 2.23222e-010 -10.2786 0.731801 -0.0259123 1.33736e-010 2.40175e-010 2.23214e-010 -2.22167 -0.733487 0.20892 -2.03217e-016 0 -3.88251e-019 1.98437 -11.1219 2.4054 -0.0163549 17.7759 0.267669 -1.57457 -6.45342 -5.67411 2.03217e-016 0 3.88251e-019 -1.8199 -11.2719 -2.18607 0.0236722 17.3623 -0.241641 1.0053 -6.3986 2.803 
5.66394 83.3196 -170.82 1.14447 3.34487 -1.39118 -0.617985 -1.49649 -6.86029 6.82062 -2.67619 -1.77315 -11.6311 8.06538 -0.406878 7.53513 -2.75096 0.583371 -0 0 0 -0 0 0 5.41166e-015 1.01892e-014 2.03257e-014 62.0866 22.4246 -1.47857 -10.8597 -5.07841 18.9619 -0.0426963 6.65767 0.938882 2.56929e-010 -1.0237e-010 1.75775e-010 4.45626e-010 -1.77381e-010 3.02785e-010 2.56931e-010 -1.0237e-010 1.75766e-010 7.73091 5.47488 0.417314 2.56927e-010 -1.02369e-010 1.7577e-010 2.90554 0.965183 0.102902 2.56935e-010 -1.02368e-010 1.75775e-010 10.2786 0.731801 0.0259123 2.56931e-010 -1.02366e-010 1.75782e-010 2.22167 -0.733487 -0.20892 5.26156e-015 1.02162e-014 2.00062e-014 -74.0045 14.2812 1.10574 9.63643 -4.23229 -16.7871 0.119454 11.0816 -1.57235 1.9868e-010 3.67657e-010 3.54979e-010 3.48436e-010 6.37833e-010 6.11383e-010 1.98675e-010 3.6765e-010 3.54985e-010 -7.73091 5.47488 -0.417314 1.98675e-010 3.6765e-010 3.54971e-010 -2.90554 0.965183 -0.102902 1.98676e-010 3.67648e-010 3.54979e-010 -10.2786 0.731801 -0.0259123 1.98688e-010 3.67649e-010 3.54973e-010 -2.22167 -0.733487 0.20892 -2.03217e-016 0 -3.88251e-019 2.88355 -14.768 3.56706 -0.0933448 25.8748 0.438582 -2.71949 -10.7323 -8.42251 2.03217e-016 0 3.88251e-019 -2.66524 -15.0303 -3.25462 0.097284 25.3414 -0.398484 1.56682 -10.7304 4.18209 
